<svg width="255" height="74" viewBox="0 0 255 74" fill="none" xmlns="http://www.w3.org/2000/svg">
<path d="M198.39 0.363281H209.876V29.6781L239.771 0.363281H254.483L226.581 27.3953L254.483 57H239.191L218.319 35.4034L209.876 43.5565V57H198.39V0.363281Z" fill="url(#paint0_linear_1547_9)"/>
<path d="M136.644 0.363281H184.874V10.4369H148.13V21.7425H180.67V31.2H148.13V46.9627H185.634V57H136.644V0.363281Z" fill="url(#paint1_linear_1547_9)"/>
<path d="M68.7375 0.363281H97.5451C101.893 0.363281 105.662 0.822269 108.851 1.74025C112.039 2.63406 114.685 3.93856 116.786 5.65372C118.888 7.36889 120.446 9.45849 121.461 11.9225C122.5 14.3866 123.019 17.1767 123.019 20.293C123.019 22.3947 122.765 24.3998 122.258 26.3082C121.751 28.1925 120.966 29.9318 119.903 31.5262C118.864 33.1205 117.547 34.5458 115.953 35.802C114.359 37.034 112.486 38.0607 110.336 38.882L122.657 57H108.597L97.9437 40.9113H97.6176L80.2243 40.875V57H68.7375V0.363281ZM97.835 30.9464C100.009 30.9464 101.905 30.6927 103.524 30.1854C105.167 29.6781 106.532 28.9655 107.619 28.0475C108.73 27.1295 109.551 26.0183 110.083 24.7138C110.638 23.3852 110.916 21.9116 110.916 20.293C110.916 17.1284 109.829 14.6885 107.655 12.9734C105.481 11.2341 102.207 10.3644 97.835 10.3644H80.2243V30.9464H97.835Z" fill="url(#paint2_linear_1547_9)"/>
<path d="M0.614014 0.363281H30.871C34.5671 0.363281 37.78 0.761876 40.5097 1.55907C43.2637 2.3321 45.5465 3.4071 47.3583 4.78406C49.1701 6.16103 50.5109 7.80372 51.3805 9.71214C52.2743 11.5964 52.7212 13.6377 52.7212 15.836C52.7212 19.4354 51.5859 22.588 49.3151 25.2936C51.9241 26.8396 53.8687 28.8447 55.1491 31.3087C56.4294 33.7728 57.0696 36.575 57.0696 39.7155C57.0696 42.3486 56.6226 44.7281 55.7288 46.8539C54.8592 48.9798 53.5184 50.8037 51.7066 52.3256C49.919 53.8233 47.6482 54.9829 44.8943 55.8042C42.1645 56.6014 38.9395 57 35.2193 57H0.614014V0.363281ZM35.2918 22.1048C36.2822 22.1048 37.2485 22.1411 38.1906 22.2135C39.8092 20.6675 40.6185 18.904 40.6185 16.9231C40.6185 14.8697 39.8092 13.2874 38.1906 12.1762C36.5963 11.0408 34.253 10.4731 31.1609 10.4731H12.1008V22.1048H35.2918ZM35.5092 46.9989C38.6013 46.9989 40.9446 46.3346 42.539 45.0059C44.1575 43.6773 44.9668 41.8051 44.9668 39.3894C44.9668 36.9736 44.1575 35.0894 42.539 33.7365C40.9446 32.3837 38.6013 31.7073 35.5092 31.7073H12.1008V46.9989H35.5092Z" fill="url(#paint3_linear_1547_9)"/>
<defs>
<linearGradient id="paint0_linear_1547_9" x1="0.547398" y1="-5.89392" x2="248.784" y2="57" gradientUnits="userSpaceOnUse">
<stop stop-color="#FBF057"/>
<stop offset="0.528846" stop-color="#19B6FF"/>
<stop offset="1" stop-color="#FF0900"/>
</linearGradient>
<linearGradient id="paint1_linear_1547_9" x1="0.547288" y1="-5.89393" x2="248.784" y2="57" gradientUnits="userSpaceOnUse">
<stop stop-color="#FBF057"/>
<stop offset="0.528846" stop-color="#19B6FF"/>
<stop offset="1" stop-color="#FF0900"/>
</linearGradient>
<linearGradient id="paint2_linear_1547_9" x1="0.547375" y1="-5.89394" x2="248.784" y2="57" gradientUnits="userSpaceOnUse">
<stop stop-color="#FBF057"/>
<stop offset="0.528846" stop-color="#19B6FF"/>
<stop offset="1" stop-color="#FF0900"/>
</linearGradient>
<linearGradient id="paint3_linear_1547_9" x1="0.547333" y1="-5.89391" x2="248.784" y2="57" gradientUnits="userSpaceOnUse">
<stop stop-color="#FBF057"/>
<stop offset="0.528846" stop-color="#19B6FF"/>
<stop offset="1" stop-color="#FF0900"/>
</linearGradient>
</defs>
</svg>
