<svg width="255" height="57" viewBox="0 0 255 57" fill="none" xmlns="http://www.w3.org/2000/svg">
<path d="M198.455 0.363281H209.942V29.6781L239.836 0.363281H254.548L226.647 27.3953L254.548 57H239.257L218.385 35.4034L209.942 43.5565V57H198.455V0.363281Z" fill="url(#paint0_linear_1547_4)"/>
<path d="M136.709 0.363281H184.939V10.4369H148.196V21.7425H180.736V31.2H148.196V46.9627H185.7V57H136.709V0.363281Z" fill="url(#paint1_linear_1547_4)"/>
<path d="M68.8032 0.363281H97.6108C101.959 0.363281 105.728 0.822269 108.916 1.74025C112.105 2.63406 114.75 3.93856 116.852 5.65372C118.954 7.36889 120.512 9.45849 121.526 11.9225C122.565 14.3866 123.085 17.1767 123.085 20.293C123.085 22.3947 122.831 24.3998 122.324 26.3082C121.816 28.1925 121.031 29.9318 119.968 31.5262C118.93 33.1205 117.613 34.5458 116.019 35.802C114.424 37.034 112.552 38.0607 110.402 38.882L122.722 57H108.663L98.0094 40.9113H97.6832L80.29 40.875V57H68.8032V0.363281ZM97.9007 30.9464C100.075 30.9464 101.971 30.6927 103.59 30.1854C105.232 29.6781 106.597 28.9655 107.684 28.0475C108.796 27.1295 109.617 26.0183 110.148 24.7138C110.704 23.3852 110.982 21.9116 110.982 20.293C110.982 17.1284 109.895 14.6885 107.721 12.9734C105.546 11.2341 102.273 10.3644 97.9007 10.3644H80.29V30.9464H97.9007Z" fill="url(#paint2_linear_1547_4)"/>
<path d="M0.679688 0.363281H30.9367C34.6327 0.363281 37.8456 0.761876 40.5754 1.55907C43.3293 2.3321 45.6122 3.4071 47.424 4.78406C49.2358 6.16103 50.5765 7.80372 51.4462 9.71214C52.34 11.5964 52.7869 13.6377 52.7869 15.836C52.7869 19.4354 51.6515 22.588 49.3807 25.2936C51.9897 26.8396 53.9344 28.8447 55.2147 31.3087C56.4951 33.7728 57.1352 36.575 57.1352 39.7155C57.1352 42.3486 56.6883 44.7281 55.7945 46.8539C54.9248 48.9798 53.5841 50.8037 51.7723 52.3256C49.9847 53.8233 47.7139 54.9829 44.96 55.8042C42.2302 56.6014 39.0052 57 35.285 57H0.679688V0.363281ZM35.3574 22.1048C36.3479 22.1048 37.3142 22.1411 38.2563 22.2135C39.8749 20.6675 40.6841 18.904 40.6841 16.9231C40.6841 14.8697 39.8749 13.2874 38.2563 12.1762C36.6619 11.0408 34.3187 10.4731 31.2266 10.4731H12.1665V22.1048H35.3574ZM35.5749 46.9989C38.667 46.9989 41.0102 46.3346 42.6046 45.0059C44.2232 43.6773 45.0324 41.8051 45.0324 39.3894C45.0324 36.9736 44.2232 35.0894 42.6046 33.7365C41.0102 32.3837 38.667 31.7073 35.5749 31.7073H12.1665V46.9989H35.5749Z" fill="url(#paint3_linear_1547_4)"/>
<defs>
<linearGradient id="paint0_linear_1547_4" x1="0.612828" y1="-5.89392" x2="248.849" y2="57" gradientUnits="userSpaceOnUse">
<stop stop-color="#FBF057"/>
<stop offset="0.528846" stop-color="#19B6FF"/>
<stop offset="1" stop-color="#FF0900"/>
</linearGradient>
<linearGradient id="paint1_linear_1547_4" x1="0.612962" y1="-5.89393" x2="248.849" y2="57" gradientUnits="userSpaceOnUse">
<stop stop-color="#FBF057"/>
<stop offset="0.528846" stop-color="#19B6FF"/>
<stop offset="1" stop-color="#FF0900"/>
</linearGradient>
<linearGradient id="paint2_linear_1547_4" x1="0.613049" y1="-5.89394" x2="248.849" y2="57" gradientUnits="userSpaceOnUse">
<stop stop-color="#FBF057"/>
<stop offset="0.528846" stop-color="#19B6FF"/>
<stop offset="1" stop-color="#FF0900"/>
</linearGradient>
<linearGradient id="paint3_linear_1547_4" x1="0.613007" y1="-5.89391" x2="248.849" y2="57" gradientUnits="userSpaceOnUse">
<stop stop-color="#FBF057"/>
<stop offset="0.528846" stop-color="#19B6FF"/>
<stop offset="1" stop-color="#FF0900"/>
</linearGradient>
</defs>
</svg>
