<svg width="88" height="46" viewBox="0 0 88 46" fill="none" xmlns="http://www.w3.org/2000/svg">
<path d="M66.181 1.804H72.033V30H66.181V1.804ZM79.519 9.594H86.169L71.691 24.756V17.878L79.519 9.594ZM78.189 16.776L86.511 30H79.595L73.895 20.272L78.189 16.776Z" fill="#3561FF"/>
<path d="M56.4151 22.144C56.3898 21.2067 56.1871 20.4087 55.8071 19.75C55.4524 19.066 54.9331 18.534 54.2491 18.154C53.5651 17.774 52.7798 17.584 51.8931 17.584C50.9051 17.584 50.0438 17.8373 49.3091 18.344C48.5744 18.8507 48.0044 19.5473 47.5991 20.434C47.1938 21.3207 46.9911 22.3467 46.9911 23.512C46.9911 24.8293 47.2191 25.9567 47.6751 26.894C48.1311 27.8313 48.7771 28.5533 49.6131 29.06C50.4491 29.5667 51.4118 29.82 52.5011 29.82C54.4771 29.82 56.1998 29.0853 57.6691 27.616L60.7471 30.656C59.7338 31.796 58.4798 32.67 56.9851 33.278C55.5158 33.886 53.8564 34.19 52.0071 34.19C49.8284 34.19 47.9411 33.7593 46.3451 32.898C44.7491 32.0367 43.5078 30.8333 42.6211 29.288C41.7598 27.7173 41.3291 25.906 41.3291 23.854C41.3291 21.7513 41.7724 19.9273 42.6591 18.382C43.5458 16.8113 44.7744 15.5953 46.3451 14.734C47.9411 13.8727 49.7778 13.4293 51.8551 13.404C54.2618 13.404 56.2251 13.9107 57.7451 14.924C59.2904 15.912 60.4051 17.318 61.0891 19.142C61.7984 20.9407 62.0644 23.0813 61.8871 25.564H46.1551V22.144H56.4151Z" fill="#FFD904"/>
<path d="M41.6446 12.648C40.2766 12.5213 39.0732 12.686 38.0346 13.142C37.0212 13.598 36.2359 14.2567 35.6786 15.118C35.1466 15.9793 34.8806 17.0053 34.8806 18.196L33.3986 17.93C33.3986 15.7007 33.7279 13.8007 34.3866 12.23C35.0706 10.6593 36.0332 9.456 37.2746 8.62C38.5159 7.784 39.9726 7.366 41.6446 7.366V12.648ZM29.0286 7.594H34.8806V28H29.0286V7.594Z" fill="#95E737"/>
<path d="M15.314 9.404C17.2393 9.404 18.9113 9.84733 20.33 10.734C21.774 11.5953 22.9013 12.8113 23.712 14.382C24.5226 15.9527 24.928 17.7893 24.928 19.892C24.928 21.944 24.5353 23.7427 23.75 25.288C22.9646 26.8333 21.8626 28.0367 20.444 28.898C19.0253 29.7593 17.3533 30.19 15.428 30.19C13.6546 30.19 12.1346 29.7847 10.868 28.974C9.60129 28.138 8.62595 26.9473 7.94195 25.402C7.25795 23.8313 6.91595 21.9947 6.91595 19.892C6.91595 17.7133 7.24529 15.8387 7.90395 14.268C8.58795 12.6973 9.55062 11.494 10.792 10.658C12.0586 9.822 13.566 9.404 15.314 9.404ZM13.946 13.964C12.958 13.964 12.0713 14.2173 11.286 14.724C10.526 15.2053 9.93062 15.8767 9.49995 16.738C9.06929 17.5993 8.85395 18.6 8.85395 19.74C8.85395 20.88 9.06929 21.8933 9.49995 22.78C9.93062 23.6413 10.526 24.3127 11.286 24.794C12.0713 25.2753 12.958 25.516 13.946 25.516C14.9593 25.516 15.846 25.2753 16.606 24.794C17.366 24.3127 17.9486 23.6413 18.354 22.78C18.7846 21.8933 19 20.88 19 19.74C19 18.6253 18.7846 17.6373 18.354 16.776C17.9486 15.8893 17.366 15.2053 16.606 14.724C15.846 14.2173 14.9593 13.964 13.946 13.964ZM3.00195 1.804H8.85395V30H3.00195V1.804Z" fill="#FF6BDA"/>
</svg>
